<?xml version="1.0" encoding="UTF-8" standalone="no"?>
<!-- Created with Inkscape (http://www.inkscape.org/) -->

<svg
   width="100mm"
   height="50mm"
   viewBox="0 0 100 50"
   version="1.1"
   id="svg1"
   inkscape:version="1.3.2 (091e20ef0f, 2023-11-25, custom)"
   sodipodi:docname="gideLogo.svg"
   xmlns:inkscape="http://www.inkscape.org/namespaces/inkscape"
   xmlns:sodipodi="http://sodipodi.sourceforge.net/DTD/sodipodi-0.dtd"
   xmlns="http://www.w3.org/2000/svg"
   xmlns:svg="http://www.w3.org/2000/svg">
  <sodipodi:namedview
     id="namedview1"
     pagecolor="#505050"
     bordercolor="#eeeeee"
     borderopacity="1"
     inkscape:showpageshadow="0"
     inkscape:pageopacity="0"
     inkscape:pagecheckerboard="0"
     inkscape:deskcolor="#505050"
     inkscape:document-units="mm"
     inkscape:zoom="1.0835875"
     inkscape:cx="146.7348"
     inkscape:cy="249.17231"
     inkscape:window-width="1920"
     inkscape:window-height="1052"
     inkscape:window-x="0"
     inkscape:window-y="0"
     inkscape:window-maximized="1"
     inkscape:current-layer="layer1"
     showguides="false" />
  <defs
     id="defs1">
    <rect
       x="97.247993"
       y="337.58945"
       width="614.05164"
       height="263.95883"
       id="rect1" />
  </defs>
  <g
     inkscape:label="Layer 1"
     inkscape:groupmode="layer"
     id="layer1">
    <text
       xml:space="preserve"
       transform="scale(0.26458333)"
       id="text1"
       style="font-style:normal;font-variant:normal;font-weight:normal;font-stretch:normal;font-size:74.6667px;font-family:Norse;-inkscape-font-specification:Norse;white-space:pre;shape-inside:url(#rect1);fill:#000000" />
    <path
       d="m 37.521595,15.808577 0.129501,2.546859 0.129501,0.604339 0.129502,1.251846 v 6.302397 l -0.172669,1.079177 0.129502,2.590026 -0.04317,0.259003 -0.04317,0.129501 -1.942519,-2.719527 -1.726684,-2.892196 -2.028854,-2.719527 -0.820175,-0.647507 0.129502,-0.388503 -2.331024,-3.755538 0.949677,-1.381347 0.949676,-2.115188 2.546859,-3.2807 4.144041,-5.5685554 1.295013,-1.4245143 0.604339,-0.906509 -0.647506,-0.3885039 -1.295013,-1.0360104 -1.33818,1.9856865 v 0.2590026 l -0.04317,0.3021697 -2.417358,3.1943654 -0.431671,1.33818 -1.381347,1.6403498 -1.165512,1.64035 -1.597182,2.287856 -1.381347,2.115188 -0.259003,0.388504 -0.172668,0.04317 -0.08634,2.331023 2.24469,3.151198 1.467681,1.683517 0.949676,1.64035 0.820175,0.259003 h -0.04317 l -0.215836,0.561172 1.94252,3.194365 1.813018,2.460525 0.518005,0.906509 0.215836,0.388504 0.302169,0.777008 2.244689,-0.172669 -0.04317,-1.295013 -0.129501,-0.129501 -0.129501,-0.215836 0.259002,-0.518005 V 19.77995 l -0.215835,-0.259002 0.474838,-3.453368 -0.215836,-0.388504 z m 9.237746,-1.165512 -0.172669,2.633194 -0.129501,1.467681 v 12.086788 l -0.388504,2.762694 0.690674,0.04317 0.820175,0.04317 0.949676,-0.259002 0.08633,-0.733841 -0.172668,-0.863342 -0.08633,-0.906509 V 18.096433 l -0.04317,-0.215835 -0.04317,-0.820175 -0.08633,-1.251846 -0.172668,-2.115188 0.129501,-2.331023 0.129501,-6.0433939 0.215836,-1.2518459 0.129501,-2.201522 -1.726684,-0.3453368 -0.777008,0.2158355 0.129502,1.2086787 0.172668,10.3169364 z m 14.115683,15.065318 1.554015,-2.97853 2.546859,-3.885039 -0.129501,-0.215835 -0.08633,-0.259003 h -0.04317 l 0.690674,-0.345337 1.985687,-2.762694 0.604339,-1.03601 V 15.981246 L 67.436423,15.46324 63.46505,10.067353 61.867867,8.3838361 61.738366,7.5204941 60.529687,5.7938102 59.968514,5.1463037 59.839013,5.0168024 59.450509,4.2397946 58.069162,2.5131107 57.162653,1.3044319 l -0.647506,0.3021697 -1.295013,0.3885039 0.04317,0.9496761 0.08633,2.3741905 0.30217,0.6043394 -0.129502,1.1655117 0.172669,12.0867878 0.172668,1.769851 -0.172668,10.489605 -0.172669,2.244689 0.906509,0.04317 0.906509,0.04317 0.561173,0.215836 z m -3.367034,-16.96467 -0.04317,-3.7555375 -0.172669,-3.064864 -0.04317,-0.8201749 -0.04317,-0.6043394 2.849029,3.928206 2.503691,3.4965348 1.467682,1.683517 1.165511,1.899352 0.345337,0.561173 0.474838,0.690673 0.345337,0.733841 -0.777008,1.64035 -1.726684,2.503692 -2.37419,4.01454 -0.647507,0.777008 -1.03601,1.683516 -0.690673,0.863342 -1.424515,2.115188 -0.08633,0.04317 -0.08633,-0.518005 -0.172669,-2.158355 -0.04317,-1.381347 -0.04317,-0.906509 0.345337,-8.849255 -0.259003,-1.726684 -0.215835,-1.813019 z M 81.638419,4.0239591 81.767921,2.5994449 81.724754,1.8224371 78.832558,1.8656042 76.4152,1.9951055 75.68136,1.8656042 h -2.374191 l -1.079177,0.1295013 0.129501,2.2446891 0.215836,0.1295013 -0.215836,0.863342 0.04317,2.7626943 -0.04317,3.5828688 v 3.539703 l -0.129501,1.683516 0.302169,4.403045 0.172669,0.129501 -0.30217,0.647506 0.04317,2.244689 0.04317,2.115188 -0.172668,0.992844 -0.08633,1.942519 -0.08633,1.856185 -0.172669,1.64035 0.172669,0.820175 2.115187,0.04317 0.345337,-0.215835 h 2.115188 l 2.719527,0.259002 2.503692,0.04317 0.30217,-0.302169 0.172668,-1.856186 -0.949676,-0.129501 -1.165512,0.215835 -3.798704,0.30217 h -0.690674 l -1.381347,-0.30217 -0.04317,-0.474838 -0.08633,-4.618879 -0.215836,-0.215836 0.259003,-0.863342 -0.30217,-1.295013 0.30217,-5.913892 0.949676,0.04317 4.100874,0.215835 1.165512,0.08634 0.129501,-0.863342 0.215836,-0.949677 -0.345337,-0.345336 -1.208679,0.04317 -2.158355,0.259002 -3.021697,-0.04317 -0.172668,-2.97853 -0.04317,-2.503691 0.302169,-0.518006 0.08634,-4.2735423 0.08633,-1.2086788 -0.04317,-0.7770078 -0.129502,-0.3885039 -0.08633,-0.3885039 0.949676,-0.1726684 0.518006,0.043167 h 0.518005 l 2.67636,0.2158355 0.690674,-0.086334 1.295012,0.3453368 z"
       id="text2"
       style="font-size:43.1671px;font-family:Norse;-inkscape-font-specification:Norse;fill:#333333;stroke-width:0.449657"
       transform="scale(0.91754853,1.0898606)"
       aria-label="GIDE" />
    <path
       d="m 2.5627077,48.005413 0.016984,0.334015 0.016984,0.07926 0.016984,0.164177 v 0.826545 l -0.022645,0.141532 0.016984,0.339676 -0.00566,0.03397 -0.00566,0.01698 -0.2547571,-0.35666 -0.2264508,-0.379305 -0.2660797,-0.35666 -0.1075641,-0.08492 0.016984,-0.05095 -0.3057086,-0.492531 0.1245479,-0.18116 0.124548,-0.277403 0.3340149,-0.430256 0.5434819,-0.730304 0.1698381,-0.186822 0.079258,-0.118887 -0.084919,-0.05095 -0.1698381,-0.135871 -0.1754994,0.260419 v 0.03397 l -0.00566,0.03963 -0.3170311,0.418934 -0.056613,0.1755 -0.1811607,0.215128 -0.1528543,0.215128 -0.2094669,0.300048 -0.1811607,0.277402 -0.033968,0.05095 -0.022645,0.0057 -0.011323,0.305708 0.294386,0.413273 0.1924832,0.220789 0.1245479,0.215129 0.1075642,0.03397 h -0.00566 l -0.028306,0.0736 0.2547571,0.418934 0.2377734,0.322692 0.067935,0.118887 0.028306,0.05095 0.039629,0.101903 0.2943861,-0.02264 -0.00566,-0.169838 -0.016984,-0.01698 -0.016984,-0.02831 0.033968,-0.06794 V 48.52625 l -0.028306,-0.03397 0.062274,-0.452901 -0.028306,-0.05095 z m 1.2058487,1.437963 -0.033968,0.464224 0.00566,0.232112 0.2547572,0.220789 0.2660797,0.0057 0.147193,-0.08492 0.6397235,-0.294386 0.067935,0.06793 0.028306,0.164177 0.028306,0.152854 0.2660797,-0.04529 -0.056613,-0.334015 -0.033968,-0.71332 0.016984,-1.33606 -0.039629,-0.124548 0.00566,-0.158515 v -0.124548 l 0.016984,-0.390628 0.039629,-0.379305 -0.028306,-0.05661 -0.022645,-0.05661 0.062274,-0.05661 0.016984,-0.260419 -0.022645,-0.147193 -0.124548,-0.0057 -0.1641768,0.0057 -0.011323,0.271741 0.022645,0.679353 0.039629,0.02264 h -0.00566 l 0.016984,0.0057 -0.04529,0.07926 -0.011322,0.481208 0.022645,0.373644 0.022645,0.373643 -0.016984,0.792578 -0.033968,0.435918 -0.147193,0.08492 h 0.00566 l -0.1981445,0.113225 -0.028306,0.01698 h 0.00566 l -0.2547571,0.09058 -0.1528543,0.06227 -0.079258,0.02831 -0.096242,-0.01698 -0.1528543,-0.124548 -0.022645,-0.152854 -0.04529,-0.730304 0.050951,-0.730304 -0.016984,-0.452901 -0.00566,-0.06227 -0.00566,-0.379305 0.04529,-0.243435 v -0.09624 l -0.00566,-0.06227 v -0.294386 l 0.022645,-0.192483 0.00566,-0.373644 -0.2830635,-0.01132 -0.028306,0.08492 0.028306,0.928448 0.033968,0.215128 -0.04529,0.152855 -0.00566,0.413272 0.033968,0.656708 z m 2.6268256,-1.590817 -0.022645,0.345337 -0.016984,0.192483 v 1.585156 l -0.050952,0.362321 0.09058,0.0057 0.1075641,0.0057 0.1245479,-0.03397 0.011323,-0.09624 -0.022645,-0.113226 -0.011323,-0.118886 V 48.30546 l -0.00566,-0.02831 -0.00566,-0.107564 -0.011323,-0.164177 -0.022645,-0.277402 0.016984,-0.305709 0.016984,-0.792578 0.028306,-0.164176 0.016984,-0.288725 -0.2264508,-0.04529 -0.1019029,0.02831 0.016984,0.158515 0.022645,1.353044 z m 2.0776918,2.241863 -0.6057559,0.01132 -0.062274,-0.05661 0.028306,-0.02831 -0.00566,-0.232112 -0.028306,-0.430256 -0.04529,-0.07926 h -0.00566 l 0.050951,-0.02264 -0.016984,-0.31137 v -0.02831 l -0.011323,-0.486869 -0.00566,-0.0736 v -0.283064 l 0.039629,-0.673691 0.028306,-0.679352 0.022645,-0.209467 0.00566,-0.322693 -0.028306,-0.02264 -0.1754994,0.02831 H 7.5049966 l 0.033968,0.407611 0.056613,0.04529 -0.033968,0.130209 0.016984,2.038058 -0.04529,1.002044 0.033968,0.1755 -0.04529,0.124548 v 0.220789 l 0.1019029,0.01132 0.2717409,-0.02264 0.067935,0.01132 h 0.3113698 l 0.050952,-0.0057 0.4076114,0.02831 0.04529,-0.04529 0.028306,-0.237773 -0.022645,-0.05095 -0.1698382,0.02265 z m 1.6134662,-0.26608 0.203805,-0.390628 0.334015,-0.509514 -0.01698,-0.02831 -0.01132,-0.03397 h -0.0057 l 0.09058,-0.04529 0.260418,-0.362321 0.07926,-0.135871 v -0.294386 l -0.0736,-0.06793 -0.520837,-0.707659 -0.209467,-0.220789 -0.01698,-0.113226 -0.158515,-0.226451 -0.073597,-0.08492 -0.016984,-0.01698 -0.050951,-0.101902 -0.1811607,-0.226451 -0.1188866,-0.158516 -0.084919,0.03963 -0.1698381,0.05095 0.00566,0.124547 0.011323,0.31137 0.039629,0.07926 -0.016984,0.152854 0.022645,1.585156 0.022645,0.232112 -0.022645,1.375689 -0.022645,0.294386 0.1188867,0.0057 0.1188866,0.0057 0.073597,0.02831 z m -0.4415794,-2.224879 -0.00566,-0.492531 -0.022645,-0.390627 -0.00566,-0.124548 -0.00566,-0.07926 0.3736439,0.520837 0.3283534,0.458563 0.192483,0.220789 0.152855,0.249096 0.04529,0.0736 0.06227,0.09058 0.04529,0.09624 -0.101903,0.215128 -0.226451,0.328353 -0.31137,0.526499 -0.08492,0.101902 -0.1358701,0.22079 -0.09058,0.113225 -0.1868219,0.277403 -0.011322,0.0057 -0.011323,-0.06793 -0.022645,-0.283064 -0.00566,-0.18116 -0.00566,-0.118887 0.04529,-1.160561 -0.033968,-0.22645 -0.028306,-0.237774 z m 1.7323514,-0.66803 -0.01698,0.249096 0.06227,0.04529 0.113226,0.0057 0.05095,-0.03397 -0.01698,-0.300048 c 0.0057,-0.130209 0.01698,-0.277402 0.02265,-0.413272 l 0.04529,-0.334015 -0.05095,-0.04529 -0.243435,-0.0057 -0.02265,0.05095 0.05095,0.305708 z m 1.817271,2.04938 -0.300047,0.475546 -0.09624,0.13021 h 0.0057 l -0.08492,0.05661 -0.164177,0.215129 -0.169838,0.203805 -0.147193,0.13021 -0.02265,0.09058 0.226451,0.152854 0.113225,-0.08492 0.0736,-0.13587 0.0736,-0.141532 0.232113,-0.317031 0.141531,-0.203806 0.209467,-0.254757 0.226451,-0.305709 0.01132,-0.288725 -0.135871,-0.107564 -0.571788,-0.58311 -0.107564,-0.06794 -0.113226,-0.09058 -0.22645,-0.254757 0.141531,-0.232112 0.152855,-0.232112 0.384966,-0.469886 0.02831,-0.130209 0.226451,-0.141532 0.06794,-0.152854 -0.209467,-0.141532 -0.06794,0.01132 -0.118887,0.203805 -0.06794,0.09058 -0.13587,0.198144 -0.164177,0.232112 -0.158516,0.215129 -0.334015,0.390627 v 0.31137 l 0.135871,0.107564 0.13587,0.101903 0.345338,0.277402 0.260418,0.294386 0.02265,0.01132 0.243435,0.277402 z m 2.247528,-1.132254 -0.02265,0.345337 -0.01698,0.192483 v 1.585156 l -0.05095,0.362321 0.09058,0.0057 0.107564,0.0057 0.124548,-0.03397 0.01132,-0.09624 -0.02265,-0.113226 -0.01132,-0.118886 V 48.30546 l -0.0057,-0.02831 -0.0057,-0.107564 -0.01132,-0.164177 -0.02265,-0.277402 0.01698,-0.305709 0.01698,-0.792578 0.02831,-0.164176 0.01698,-0.288725 -0.226451,-0.04529 -0.101903,0.02831 0.01698,0.158515 0.02264,1.353044 z m 2.858946,2.128637 0.01132,-0.215128 -0.05095,-1.330398 -0.01698,-0.458563 0.06794,-1.505898 0.01132,-0.271741 -0.113225,-0.02265 -0.198145,0.0057 0.0057,0.334015 0.04529,0.0736 h 0.0057 l -0.05661,0.01698 0.01132,0.186822 0.0057,0.418934 0.01698,0.430257 -0.02264,0.03397 h -0.01698 l -0.430256,-0.588772 -0.05095,-0.03397 -0.152854,-0.26608 -0.498192,-0.66803 -0.26608,0.0736 v 0.192483 l 0.02831,0.266079 0.01132,0.367983 0.01698,0.373644 -0.01698,1.234157 0.03397,0.09058 0.02265,0.03963 -0.05095,0.215128 -0.01698,0.390628 -0.02265,0.458563 v 0.124548 l 0.0057,0.06793 -0.02831,0.328354 0.141531,0.02264 0.181161,-0.01132 0.01132,-0.226451 -0.01132,-0.09058 v -0.645385 l -0.02265,-0.215128 -0.02264,-0.22079 0.01132,-1.364366 -0.03963,-0.09058 -0.0057,-0.01698 0.05095,-0.35666 v -0.515175 l 0.0057,-0.03397 0.01698,-0.01132 0.09058,0.08492 0.141532,0.181161 0.05095,0.06227 0.135871,0.169838 0.237773,0.334015 0.181161,0.237773 0.08492,0.152855 0.0736,0.158515 0.135871,0.277403 0.0057,0.49253 0.02831,0.135871 0.02831,0.130209 -0.05095,0.01132 -0.01698,0.452902 0.01698,0.328354 v 0.249095 l -0.01698,0.328354 0.05661,0.01132 0.22079,-0.0057 0.02831,-0.05661 z m 1.896526,-3.804373 -0.288725,0.01132 -0.266079,0.0057 h -0.06794 l -0.06794,-0.01132 -0.124548,-0.0057 -0.464224,-0.02264 -0.03963,0.300047 0.0736,0.02831 0.266079,-0.05095 0.04529,-0.0057 0.0736,-0.02264 h 0.305709 v 0.118886 l 0.02265,0.147193 0.02264,0.141532 -0.02831,0.350999 0.03963,0.294386 -0.03397,1.25114 -0.02831,0.809562 0.01698,0.04529 0.01698,0.03963 -0.06794,0.424595 v 0.305709 l 0.164177,0.02265 0.13587,-0.01698 0.07926,-0.05095 -0.0736,-0.328354 -0.01132,-1.126593 -0.03397,-0.101902 -0.02831,-0.107565 h -0.0057 l 0.03963,-0.03397 0.01698,-0.26608 -0.0057,-0.464224 v -0.169838 l -0.0057,-0.06793 -0.0057,-0.249096 0.01698,-0.554805 0.01132,-0.203805 0.01698,-0.215129 h 0.35666 l 0.243434,0.05095 0.05095,0.02265 0.101903,0.0057 0.01132,-0.169838 -0.02265,-0.135871 z m 2.258848,0.283063 0.01698,-0.186822 -0.0057,-0.101903 -0.379305,0.0057 -0.317031,0.01698 -0.09624,-0.01698 h -0.311369 l -0.141532,0.01698 0.01698,0.294386 0.02831,0.01698 -0.02831,0.113226 0.0057,0.362321 -0.0057,0.469886 v 0.464224 l -0.01698,0.220789 0.03963,0.57745 0.02265,0.01698 -0.03963,0.08492 0.0057,0.294386 0.0057,0.277402 -0.02265,0.130209 -0.01132,0.254757 -0.01132,0.243435 -0.02265,0.215128 0.02265,0.107564 0.277402,0.0057 0.04529,-0.02831 h 0.277402 l 0.35666,0.03397 0.328354,0.0057 0.03963,-0.03963 0.02265,-0.243434 -0.124548,-0.01698 -0.152855,0.02831 -0.498191,0.03963 h -0.09058 l -0.18116,-0.03963 -0.0057,-0.06227 -0.01132,-0.605756 -0.02831,-0.02831 0.03397,-0.113225 -0.03963,-0.169839 0.03963,-0.775594 0.124548,0.0057 0.537821,0.02831 0.152854,0.01132 0.01698,-0.113226 0.02831,-0.124548 -0.04529,-0.04529 -0.158516,0.0057 -0.283063,0.03397 -0.396289,-0.0057 -0.02265,-0.390628 -0.0057,-0.328354 0.03963,-0.06793 0.01132,-0.560466 0.01132,-0.158515 -0.0057,-0.101903 -0.01698,-0.05095 -0.01132,-0.05095 0.124548,-0.02265 0.06793,0.0057 h 0.06794 l 0.350999,0.02831 0.09058,-0.01132 0.169839,0.04529 z m 1.771978,1.545527 0.01698,0.334015 0.01698,0.07926 0.01698,0.164177 v 0.826545 l -0.02265,0.141532 0.01698,0.339676 -0.0057,0.03397 -0.0057,0.01698 -0.254757,-0.35666 -0.226451,-0.379305 -0.266079,-0.35666 -0.107565,-0.08492 0.01698,-0.05095 -0.305708,-0.492531 0.124548,-0.18116 0.124548,-0.277403 0.334015,-0.430256 0.543481,-0.730304 0.169839,-0.186822 0.07926,-0.118887 -0.08492,-0.05095 -0.169838,-0.135871 -0.175499,0.260419 v 0.03397 l -0.0057,0.03963 -0.317032,0.418934 -0.05661,0.1755 -0.181161,0.215128 -0.152854,0.215128 -0.209467,0.300048 -0.181161,0.277402 -0.03397,0.05095 -0.02265,0.0057 -0.01132,0.305708 0.294386,0.413273 0.192483,0.220789 0.124548,0.215129 0.107564,0.03397 h -0.0057 l -0.02831,0.0736 0.254757,0.418934 0.237773,0.322692 0.06793,0.118887 0.02831,0.05095 0.03963,0.101903 0.294386,-0.02264 -0.0057,-0.169838 -0.01698,-0.01698 -0.01698,-0.02831 0.03397,-0.06794 V 48.52625 l -0.02831,-0.03397 0.06227,-0.452901 -0.02831,-0.05095 z m 1.585152,0.458563 0.02265,0.101903 0.09624,0.164177 0.215128,0.339676 0.05661,0.13587 0.226451,0.418934 0.07926,0.147193 0.209467,0.515176 0.05661,0.107564 0.260419,-0.124548 0.02265,-0.09058 -0.1755,-0.203806 -0.124547,-0.243435 -0.07926,-0.13587 -0.05095,-0.04529 -0.01698,-0.124548 -0.203806,-0.345338 -0.158516,-0.22645 -0.02265,-0.101903 -0.147193,-0.277403 0.232112,-0.266079 0.118887,-0.186822 0.203806,-0.203806 0.249095,-0.31137 -0.01132,-0.266079 -0.192483,-0.169839 -0.05095,-0.01132 -0.118886,-0.135871 -0.911465,-0.832206 -0.26608,0.09624 0.02265,0.435918 0.05095,1.211512 -0.01698,1.11527 0.0057,0.164177 0.0057,0.08492 v 0.07926 l -0.03963,0.254757 -0.02831,0.798239 0.215129,0.01698 0.107564,-0.03397 -0.0057,-0.367982 -0.05095,-0.101903 h -0.0057 l 0.03963,-0.02264 -0.02265,-0.549143 0.02265,-0.498192 -0.03963,-0.498192 0.02831,-0.277402 -0.01132,-0.481208 -0.02831,-0.09624 v -0.147193 l 0.03963,-0.651046 -0.0057,-0.09058 v -0.09058 l 0.147193,0.113226 0.07926,0.01132 0.05095,0.09624 0.492531,0.464224 0.05095,0.03963 0.198145,0.226451 -0.01698,0.02831 -0.09624,0.198145 -0.254757,0.305708 z m 3.051425,0.769933 0.01698,0.152854 0.01698,0.05095 0.02831,0.203806 0.06794,0.07926 -0.05661,0.05095 0.0736,0.583111 0.07926,0.02831 h 0.03397 l 0.192483,-0.09058 -0.09624,-0.283063 -0.05095,-0.384967 -0.152854,-0.566127 v -0.101903 l -0.328354,-1.443624 -0.01698,-0.05095 -0.01132,-0.04529 0.02265,-0.09624 -0.186822,-0.871835 -0.02265,-0.07926 -0.02831,-0.07926 0.01698,-0.130209 -0.305708,-0.01698 -0.05661,0.31137 -0.03963,0.249096 -0.03397,0.237773 0.03397,0.03397 -0.0736,0.164177 -0.164176,0.826545 -0.0057,0.06793 v 0.06794 l -0.02831,0.118886 -0.02265,0.118887 -0.135871,0.747288 v 0.113225 l 0.0057,0.01698 -0.0736,0.09058 -0.05661,0.345338 -0.147193,0.617078 0.09624,0.09058 0.22079,0.01698 0.03397,-0.243434 v -0.215129 l 0.0057,-0.03397 0.08492,-0.509515 -0.0057,-0.02264 0.07926,-0.02831 0.02831,-0.01132 0.141532,-0.04529 0.362321,-0.107564 0.152855,-0.09624 0.05661,-0.0057 0.101903,-0.01698 0.07926,-0.01132 z m -0.792578,-1.432302 -0.01698,-0.06793 0.05661,-0.09058 0.192484,-0.900142 0.0057,-0.101903 0.02831,0.113225 0.209467,0.962416 0.04529,0.31137 0.147193,0.718981 0.02831,0.04529 h 0.0057 l -0.06793,0.03397 -0.0736,0.03397 -0.164177,0.05095 -0.384966,0.124548 -0.0057,0.02264 -0.0057,0.01698 -0.124547,0.0057 -0.02831,0.0057 h -0.0736 l 0.01698,-0.169839 0.01132,-0.05661 0.01132,-0.05661 0.06793,-0.390628 z m 2.609853,-1.624784 -0.288724,0.01132 -0.26608,0.0057 h -0.06793 l -0.06794,-0.01132 -0.124548,-0.0057 -0.464224,-0.02264 -0.03963,0.300047 0.0736,0.02831 0.26608,-0.05095 0.04529,-0.0057 0.0736,-0.02264 h 0.305709 v 0.118886 l 0.02265,0.147193 0.02265,0.141532 -0.02831,0.350999 0.03963,0.294386 -0.03397,1.25114 -0.02831,0.809562 0.01698,0.04529 0.01698,0.03963 -0.06794,0.424595 v 0.305709 l 0.164177,0.02265 0.13587,-0.01698 0.07926,-0.05095 -0.0736,-0.328354 -0.01132,-1.126593 -0.03397,-0.101902 -0.02831,-0.107565 h -0.0057 l 0.03963,-0.03397 0.01698,-0.26608 -0.0057,-0.464224 v -0.169838 l -0.0057,-0.06793 -0.0057,-0.249096 0.01698,-0.554805 0.01132,-0.203805 0.01698,-0.215129 h 0.35666 l 0.243435,0.05095 0.05095,0.02265 0.101903,0.0057 0.01132,-0.169838 -0.02265,-0.135871 z m 2.25885,0.283063 0.01698,-0.186822 -0.0057,-0.101903 -0.379305,0.0057 -0.317031,0.01698 -0.09624,-0.01698 h -0.31137 l -0.141532,0.01698 0.01698,0.294386 0.02831,0.01698 -0.02831,0.113226 0.0057,0.362321 -0.0057,0.469886 v 0.464224 l -0.01698,0.220789 0.03963,0.57745 0.02264,0.01698 -0.03963,0.08492 0.0057,0.294386 0.0057,0.277402 -0.02265,0.130209 -0.01132,0.254757 -0.01132,0.243435 -0.02264,0.215128 0.02264,0.107564 0.277403,0.0057 0.04529,-0.02831 h 0.277402 l 0.35666,0.03397 0.328354,0.0057 0.03963,-0.03963 0.02264,-0.243434 -0.124548,-0.01698 -0.152855,0.02831 -0.498191,0.03963 h -0.09058 l -0.18116,-0.03963 -0.0057,-0.06227 -0.01132,-0.605756 -0.02831,-0.02831 0.03397,-0.113225 -0.03963,-0.169839 0.03963,-0.775594 0.124548,0.0057 0.537821,0.02831 0.152854,0.01132 0.01698,-0.113226 0.02831,-0.124548 -0.04529,-0.04529 -0.158515,0.0057 -0.283064,0.03397 -0.396289,-0.0057 -0.02265,-0.390628 -0.0057,-0.328354 0.03963,-0.06793 0.01132,-0.560466 0.01132,-0.158515 -0.0057,-0.101903 -0.01698,-0.05095 -0.01132,-0.05095 0.124548,-0.02265 0.06793,0.0057 h 0.06794 l 0.350998,0.02831 0.09058,-0.01132 0.169838,0.04529 z m 1.420977,3.368456 0.203806,-0.390628 0.334015,-0.509514 -0.01698,-0.02831 -0.01132,-0.03397 h -0.0057 l 0.09058,-0.04529 0.260418,-0.362321 0.07926,-0.135871 v -0.294386 l -0.0736,-0.06793 -0.520837,-0.707659 -0.209467,-0.220789 -0.01698,-0.113226 -0.158516,-0.226451 -0.0736,-0.08492 -0.01698,-0.01698 -0.05095,-0.101902 -0.18116,-0.226451 -0.118887,-0.158516 -0.08492,0.03963 -0.169838,0.05095 0.0057,0.124547 0.01132,0.31137 0.03963,0.07926 -0.01698,0.152854 0.02264,1.585156 0.02265,0.232112 -0.02265,1.375689 -0.02264,0.294386 0.118886,0.0057 0.118887,0.0057 0.0736,0.02831 z m -0.441579,-2.224879 -0.0057,-0.492531 -0.02264,-0.390627 -0.0057,-0.124548 -0.0057,-0.07926 0.373644,0.520837 0.328354,0.458563 0.192483,0.220789 0.152854,0.249096 0.04529,0.0736 0.06227,0.09058 0.04529,0.09624 -0.101902,0.215128 -0.226451,0.328353 -0.31137,0.526499 -0.08492,0.101902 -0.135871,0.22079 -0.09058,0.113225 -0.186822,0.277403 -0.01132,0.0057 -0.01132,-0.06793 -0.02265,-0.283064 -0.0057,-0.18116 -0.0057,-0.118887 0.04529,-1.160561 -0.03397,-0.22645 -0.02831,-0.237774 z m 3.600572,2.224879 0.203806,-0.390628 0.334015,-0.509514 -0.01698,-0.02831 -0.01132,-0.03397 h -0.0057 l 0.09058,-0.04529 0.260419,-0.362321 0.07926,-0.135871 v -0.294386 l -0.0736,-0.06793 -0.520837,-0.707659 -0.209467,-0.220789 -0.01698,-0.113226 -0.158515,-0.226451 -0.0736,-0.08492 -0.01698,-0.01698 -0.05095,-0.101902 -0.181161,-0.226451 -0.118886,-0.158516 -0.08492,0.03963 -0.169838,0.05095 0.0057,0.124547 0.01132,0.31137 0.03963,0.07926 -0.01698,0.152854 0.02265,1.585156 0.02264,0.232112 -0.02264,1.375689 -0.02265,0.294386 0.118887,0.0057 0.118887,0.0057 0.0736,0.02831 z m -0.441579,-2.224879 -0.0057,-0.492531 -0.02265,-0.390627 -0.0057,-0.124548 -0.0057,-0.07926 0.373644,0.520837 0.328353,0.458563 0.192484,0.220789 0.152854,0.249096 0.04529,0.0736 0.06227,0.09058 0.04529,0.09624 -0.101903,0.215128 -0.22645,0.328353 -0.31137,0.526499 -0.08492,0.101902 -0.135871,0.22079 -0.09058,0.113225 -0.186822,0.277403 -0.01132,0.0057 -0.01132,-0.06793 -0.02264,-0.283064 -0.0057,-0.18116 -0.0057,-0.118887 0.04529,-1.160561 -0.03397,-0.22645 -0.02831,-0.237774 z m 3.164652,-1.143577 0.01698,-0.186822 -0.0057,-0.101903 -0.379305,0.0057 -0.317031,0.01698 -0.09624,-0.01698 h -0.31137 l -0.141532,0.01698 0.01698,0.294386 0.02831,0.01698 -0.02831,0.113226 0.0057,0.362321 -0.0057,0.469886 v 0.464224 l -0.01698,0.220789 0.03963,0.57745 0.02264,0.01698 -0.03963,0.08492 0.0057,0.294386 0.0057,0.277402 -0.02264,0.130209 -0.01132,0.254757 -0.01132,0.243435 -0.02264,0.215128 0.02264,0.107564 0.277402,0.0057 0.04529,-0.02831 h 0.277402 l 0.35666,0.03397 0.328354,0.0057 0.03963,-0.03963 0.02265,-0.243434 -0.124548,-0.01698 -0.152854,0.02831 -0.498192,0.03963 h -0.09058 l -0.181161,-0.03963 -0.0057,-0.06227 -0.01132,-0.605756 -0.02831,-0.02831 0.03397,-0.113225 -0.03963,-0.169839 0.03963,-0.775594 0.124547,0.0057 0.537821,0.02831 0.152854,0.01132 0.01698,-0.113226 0.02831,-0.124548 -0.04529,-0.04529 -0.158515,0.0057 -0.283064,0.03397 -0.396289,-0.0057 -0.02265,-0.390628 -0.0057,-0.328354 0.03963,-0.06793 0.01132,-0.560466 0.01132,-0.158515 -0.0057,-0.101903 -0.01698,-0.05095 -0.01132,-0.05095 0.124548,-0.02265 0.06794,0.0057 h 0.06794 l 0.350999,0.02831 0.09058,-0.01132 0.169838,0.04529 z m 1.047334,1.664414 -0.107564,-0.894481 -0.07926,-0.152854 h -0.0057 l 0.03963,-0.01698 -0.08492,-0.367983 -0.05661,-0.526498 h -0.198145 l -0.124548,0.06793 0.192483,0.639724 0.04529,0.430256 0.124548,0.469886 0.01698,0.198144 0.0736,0.215129 0.243434,1.188866 0.141532,0.854852 0.06227,0.141532 0.135871,-0.0057 0.124548,-0.01132 0.08492,-0.384966 0.09058,-0.645385 0.209467,-0.900142 v -0.02264 l -0.0057,-0.02831 -0.0057,-0.06227 0.07926,-0.158516 0.0736,-0.498192 0.06793,-0.503853 0.04529,-0.192483 0.05095,-0.203806 0.09624,-0.40195 0.05095,-0.169838 -0.271741,-0.04529 -0.03963,0.04529 -0.08492,0.571788 v 0.147193 l 0.01698,0.02264 -0.07926,0.09058 -0.07926,0.617078 -0.09058,0.588772 -0.06227,0.186822 -0.06794,0.40195 -0.107564,0.53216 -0.107564,0.520837 -0.01698,-0.0057 -0.01132,-0.0057 -0.02265,-0.13587 -0.0736,-0.288725 -0.113225,-0.651046 z m 3.232589,-1.664414 0.01698,-0.186822 -0.0057,-0.101903 -0.379305,0.0057 -0.317031,0.01698 -0.09624,-0.01698 h -0.311369 l -0.141532,0.01698 0.01698,0.294386 0.02831,0.01698 -0.02831,0.113226 0.0057,0.362321 -0.0057,0.469886 v 0.464224 l -0.01698,0.220789 0.03963,0.57745 0.02264,0.01698 -0.03963,0.08492 0.0057,0.294386 0.0057,0.277402 -0.02264,0.130209 -0.01132,0.254757 -0.01132,0.243435 -0.02264,0.215128 0.02264,0.107564 0.277403,0.0057 0.04529,-0.02831 h 0.277402 l 0.35666,0.03397 0.328354,0.0057 0.03963,-0.03963 0.02265,-0.243434 -0.124548,-0.01698 -0.152855,0.02831 -0.498191,0.03963 h -0.09058 l -0.18116,-0.03963 -0.0057,-0.06227 -0.01132,-0.605756 -0.02831,-0.02831 0.03397,-0.113225 -0.03963,-0.169839 0.03963,-0.775594 0.124548,0.0057 0.537821,0.02831 0.152854,0.01132 0.01698,-0.113226 0.02831,-0.124548 -0.04529,-0.04529 -0.158516,0.0057 -0.283063,0.03397 -0.396289,-0.0057 -0.02264,-0.390628 -0.0057,-0.328354 0.03963,-0.06793 0.01132,-0.560466 0.01132,-0.158515 -0.0057,-0.101903 -0.01698,-0.05095 -0.01132,-0.05095 0.124548,-0.02265 0.06794,0.0057 h 0.06793 l 0.350999,0.02831 0.09058,-0.01132 0.169839,0.04529 z m 1.647428,3.634536 -0.605756,0.01132 -0.06227,-0.05661 0.02831,-0.02831 -0.0057,-0.232112 -0.02831,-0.430256 -0.04529,-0.07926 h -0.0057 l 0.05095,-0.02264 -0.01698,-0.31137 v -0.02831 l -0.01132,-0.486869 -0.0057,-0.0736 v -0.283064 l 0.03963,-0.673691 0.02831,-0.679352 0.02264,-0.209467 0.0057,-0.322693 -0.02831,-0.02264 -0.175499,0.02831 h -0.152854 l 0.03397,0.407611 0.05661,0.04529 -0.03397,0.130209 0.01698,2.038058 -0.04529,1.002044 0.03397,0.1755 -0.04529,0.124548 v 0.220789 l 0.101903,0.01132 0.271741,-0.02264 0.06794,0.01132 h 0.31137 l 0.05095,-0.0057 0.407611,0.02831 0.04529,-0.04529 0.02831,-0.237773 -0.02264,-0.05095 -0.169838,0.02265 z m 1.63611,-3.951567 -0.203805,0.01698 -0.06227,0.01132 -0.03397,0.101903 -0.02831,0.05661 -0.35666,0.815223 -0.0057,0.01698 v 0.02831 l -0.0057,0.05095 -0.07926,0.07926 -0.345337,0.792578 -0.05095,0.05661 0.03397,0.198144 0.147193,0.328354 0.107564,0.254757 0.113226,0.249096 0.124548,0.288725 h 0.08492 l 0.02265,0.226451 0.237773,0.532159 0.01132,0.113225 0.237773,0.03397 0.04529,-0.05095 0.06227,-0.164177 0.322693,-0.792578 0.220789,-0.44724 0.277402,-0.583111 0.01698,-0.249096 -0.226451,-0.407612 -0.107564,-0.277402 h -0.03963 l -0.03963,-0.05095 -0.05661,-0.209467 -0.334015,-0.75861 z m -0.09058,3.83268 h 0.0057 l -0.04529,0.02831 -0.01132,0.0057 -0.147193,-0.379305 -0.203806,-0.44158 -0.169838,-0.35666 -0.141532,-0.367982 -0.0057,-0.01698 -0.06794,-0.169838 -0.02264,-0.05095 -0.01132,-0.02265 0.0057,-0.04529 v -0.02831 l 0.0057,-0.02265 0.209467,-0.498192 0.01698,-0.158515 h -0.0057 l 0.0736,-0.05095 0.35666,-0.673691 0.08492,-0.186822 0.0057,-0.03963 0.0057,-0.01132 0.03397,0.02831 0.175499,0.373644 0.03397,0.0057 h 0.02265 l -0.03397,0.0736 0.367983,0.84919 0.05095,0.101903 0.02264,0.05661 0.02831,0.03963 0.05661,0.164176 0.02265,0.06794 -0.266079,0.764271 -0.03963,0.147193 -0.09058,0.0736 z m 2.360751,-1.658752 0.175499,-0.192483 0.124548,-0.118887 0.113225,-0.124548 0.107565,-0.124548 0.198144,-0.175499 0.01698,-0.271741 -0.413273,-0.379305 -0.260418,-0.209467 -0.05661,-0.101903 -0.532159,-0.503853 -0.06227,0.01132 -0.1755,0.09058 0.01132,0.288724 0.01132,0.118887 0.01132,0.147193 v 0.900142 l 0.03397,-0.0057 -0.04529,0.09624 -0.0057,1.517221 0.02831,0.141532 -0.06227,0.917125 0.198145,0.01698 0.118887,-0.01132 -0.03963,-0.718982 -0.05095,-0.01132 h 0.0057 l 0.04529,-0.06227 v -0.107564 l -0.01132,-0.424596 0.06793,-0.169838 0.288725,-0.317031 z M 49.573933,48.16959 49.56261,47.716688 v -0.130209 l -0.0057,-0.13587 -0.0057,-0.271741 0.03397,-0.605756 0.01132,-0.08492 0.441579,0.430256 0.0736,0.01698 0.01698,0.05661 0.07926,0.0736 0.209467,0.203806 0.152854,0.152854 v 0.02831 l -0.0057,0.03397 -0.181161,0.198145 -0.03963,0.05095 -0.118886,0.152854 -0.186822,0.209467 -0.1755,0.181161 -0.266079,0.26608 -0.01132,0.0057 -0.01698,-0.07926 0.01132,-0.226451 z m 2.230537,-1.590817 -0.243435,-0.430257 -0.05095,0.01132 -0.181161,0.03397 0.0057,0.175499 0.02265,0.09058 0.02264,0.08492 -0.02831,0.113226 0.02264,0.266079 0.02265,0.288725 -0.03397,2.411701 0.0057,0.169838 0.03963,0.01132 -0.04529,0.04529 -0.0057,0.02831 -0.0057,0.169839 -0.03397,0.215128 0.01698,0.08492 0.317031,-0.01132 0.01132,-0.09624 -0.05095,-0.88882 -0.05095,-0.724642 0.03963,-0.277403 v -0.764271 l -0.02831,-0.02831 0.02264,-0.06227 0.01698,-0.441579 -0.0057,-0.04529 v -0.147193 l -0.02265,-0.209467 0.0057,-0.0057 0.06793,0.09058 0.06227,0.07926 0.07926,0.147193 0.243434,0.418934 0.06794,0.101903 0.04529,0.164177 0.13587,0.02831 0.03963,0.01132 0.09624,-0.203806 h -0.0057 l 0.06227,-0.101903 0.02264,-0.03963 0.04529,-0.101902 0.141531,-0.232113 0.186822,-0.271741 0.05095,-0.09058 0.01132,-0.01132 0.0057,0.328353 0.01698,0.350999 -0.03963,1.319076 0.03963,0.288725 0.01698,0.03963 -0.02831,0.08492 v 0.718981 l -0.03963,0.407611 -0.01132,0.147193 0.03397,0.03397 0.300047,-0.01132 -0.01698,-0.226451 -0.01132,-0.209467 -0.06227,-2.683442 -0.02265,-0.08492 0.02831,-0.164177 0.03963,-0.775594 -0.06227,-0.05095 -0.158515,-0.0057 -0.13021,0.226451 -0.124548,0.220789 h 0.0057 l -0.02264,0.01132 -0.03963,0.107564 -0.186822,0.322693 -0.164177,0.249095 -0.03397,0.05661 -0.02264,0.05095 -0.02831,-0.05095 -0.02265,-0.06227 -0.05661,-0.124548 -0.01698,-0.01698 z m 3.521315,-0.118887 0.01698,-0.186822 -0.0057,-0.101903 -0.379305,0.0057 -0.317031,0.01698 -0.09624,-0.01698 h -0.31137 l -0.141532,0.01698 0.01698,0.294386 0.02831,0.01698 -0.02831,0.113226 0.0057,0.362321 -0.0057,0.469886 v 0.464224 l -0.01698,0.220789 0.03963,0.57745 0.02265,0.01698 -0.03963,0.08492 0.0057,0.294386 0.0057,0.277402 -0.02265,0.130209 -0.01132,0.254757 -0.01132,0.243435 -0.02265,0.215128 0.02265,0.107564 0.277403,0.0057 0.04529,-0.02831 H 54.6804 l 0.35666,0.03397 0.328354,0.0057 0.03963,-0.03963 0.02265,-0.243434 -0.124548,-0.01698 -0.152854,0.02831 -0.498192,0.03963 h -0.09058 l -0.18116,-0.03963 -0.0057,-0.06227 -0.01132,-0.605756 -0.02831,-0.02831 0.03397,-0.113225 -0.03963,-0.169839 0.03963,-0.775594 0.124548,0.0057 0.537821,0.02831 0.152854,0.01132 0.01698,-0.113226 0.02831,-0.124548 -0.04529,-0.04529 -0.158515,0.0057 -0.283064,0.03397 -0.396289,-0.0057 -0.02264,-0.390628 -0.0057,-0.328354 0.03963,-0.06793 0.01132,-0.560466 0.01132,-0.158515 -0.0057,-0.101903 -0.01698,-0.05095 -0.01132,-0.05095 0.124548,-0.02265 0.06793,0.0057 h 0.06794 l 0.350998,0.02831 0.09058,-0.01132 0.169838,0.04529 z m 2.428687,3.52131 0.01132,-0.215128 -0.05095,-1.330398 -0.01698,-0.458563 0.06794,-1.505898 0.01132,-0.271741 -0.113225,-0.02265 -0.198145,0.0057 0.0057,0.334015 0.04529,0.0736 h 0.0057 l -0.05661,0.01698 0.01132,0.186822 0.0057,0.418934 0.01698,0.430257 -0.02265,0.03397 h -0.01698 l -0.430256,-0.588772 -0.05095,-0.03397 -0.152854,-0.26608 -0.498192,-0.66803 -0.26608,0.0736 v 0.192483 l 0.02831,0.266079 0.01132,0.367983 0.01698,0.373644 -0.01698,1.234157 0.03397,0.09058 0.02265,0.03963 -0.05095,0.215128 -0.01698,0.390628 -0.02264,0.458563 v 0.124548 l 0.0057,0.06793 -0.02831,0.328354 0.141531,0.02264 0.181161,-0.01132 0.01132,-0.226451 -0.01132,-0.09058 v -0.645385 l -0.02264,-0.215128 -0.02265,-0.22079 0.01132,-1.364366 -0.03963,-0.09058 -0.0057,-0.01698 0.05095,-0.35666 v -0.515175 l 0.0057,-0.03397 0.01698,-0.01132 0.09058,0.08492 0.141532,0.181161 0.05095,0.06227 0.135871,0.169838 0.237773,0.334015 0.181161,0.237773 0.08492,0.152855 0.0736,0.158515 0.135871,0.277403 0.0057,0.49253 0.02831,0.135871 0.02831,0.130209 -0.05095,0.01132 -0.01698,0.452902 0.01698,0.328354 v 0.249095 l -0.01698,0.328354 0.05661,0.01132 0.22079,-0.0057 0.02831,-0.05661 z m 1.896522,-3.804373 -0.288725,0.01132 -0.266079,0.0057 h -0.06793 l -0.06794,-0.01132 -0.124548,-0.0057 -0.464224,-0.02264 -0.03963,0.300047 0.0736,0.02831 0.266079,-0.05095 0.04529,-0.0057 0.0736,-0.02264 h 0.305709 v 0.118886 l 0.02264,0.147193 0.02265,0.141532 -0.02831,0.350999 0.03963,0.294386 -0.03397,1.25114 -0.02831,0.809562 0.01698,0.04529 0.01698,0.03963 -0.06793,0.424595 v 0.305709 l 0.164177,0.02265 0.13587,-0.01698 0.07926,-0.05095 -0.0736,-0.328354 -0.01132,-1.126593 -0.03397,-0.101902 -0.02831,-0.107565 h -0.0057 l 0.03963,-0.03397 0.01698,-0.26608 -0.0057,-0.464224 v -0.169838 l -0.0057,-0.06793 -0.0057,-0.249096 0.01698,-0.554805 0.01132,-0.203805 0.01698,-0.215129 h 0.35666 l 0.243434,0.05095 0.05095,0.02265 0.101903,0.0057 0.01132,-0.169838 -0.02264,-0.135871 z m 3.306181,0.283063 0.01698,-0.186822 -0.0057,-0.101903 -0.379305,0.0057 -0.317031,0.01698 -0.09624,-0.01698 h -0.31137 l -0.141531,0.01698 0.01698,0.294386 0.02831,0.01698 -0.02831,0.113226 0.0057,0.362321 -0.0057,0.469886 v 0.464224 l -0.01698,0.220789 0.03963,0.57745 0.02264,0.01698 -0.03963,0.08492 0.0057,0.294386 0.0057,0.277402 -0.02264,0.130209 -0.01132,0.254757 -0.01132,0.243435 -0.02264,0.215128 0.02264,0.107564 0.277402,0.0057 0.04529,-0.02831 h 0.277402 l 0.35666,0.03397 0.328353,0.0057 0.03963,-0.03963 0.02265,-0.243434 -0.124548,-0.01698 -0.152854,0.02831 -0.498192,0.03963 h -0.09058 l -0.181161,-0.03963 -0.0057,-0.06227 -0.01132,-0.605756 -0.02831,-0.02831 0.03397,-0.113225 -0.03963,-0.169839 0.03963,-0.775594 0.124548,0.0057 0.53782,0.02831 0.152855,0.01132 0.01698,-0.113226 0.02831,-0.124548 -0.04529,-0.04529 -0.158516,0.0057 -0.283063,0.03397 -0.396289,-0.0057 -0.02265,-0.390628 -0.0057,-0.328354 0.03963,-0.06793 0.01132,-0.560466 0.01132,-0.158515 -0.0057,-0.101903 -0.01698,-0.05095 -0.01132,-0.05095 0.124548,-0.02265 0.06793,0.0057 h 0.06794 l 0.350999,0.02831 0.09058,-0.01132 0.169838,0.04529 z m 2.428687,3.52131 0.01132,-0.215128 -0.05095,-1.330398 -0.01698,-0.458563 0.06793,-1.505898 0.01132,-0.271741 -0.113226,-0.02265 -0.198144,0.0057 0.0057,0.334015 0.04529,0.0736 h 0.0057 l -0.05661,0.01698 0.01132,0.186822 0.0057,0.418934 0.01698,0.430257 -0.02265,0.03397 h -0.01698 l -0.430257,-0.588772 -0.05095,-0.03397 -0.152855,-0.26608 -0.498191,-0.66803 -0.26608,0.0736 v 0.192483 l 0.02831,0.266079 0.01132,0.367983 0.01698,0.373644 -0.01698,1.234157 0.03397,0.09058 0.02265,0.03963 -0.05095,0.215128 -0.01698,0.390628 -0.02265,0.458563 v 0.124548 l 0.0057,0.06793 -0.02831,0.328354 0.141532,0.02264 0.181161,-0.01132 0.01132,-0.226451 -0.01132,-0.09058 v -0.645385 l -0.02265,-0.215128 -0.02264,-0.22079 0.01132,-1.364366 -0.03963,-0.09058 -0.0057,-0.01698 0.05095,-0.35666 v -0.515175 l 0.0057,-0.03397 0.01698,-0.01132 0.09058,0.08492 0.141531,0.181161 0.05095,0.06227 0.13587,0.169838 0.237774,0.334015 0.18116,0.237773 0.08492,0.152855 0.0736,0.158515 0.13587,0.277403 0.0057,0.49253 0.02831,0.135871 0.02831,0.130209 -0.05095,0.01132 -0.01698,0.452902 0.01698,0.328354 v 0.249095 l -0.01698,0.328354 0.05661,0.01132 0.220789,-0.0057 0.02831,-0.05661 z M 66.659644,48.1243 66.55208,47.229819 66.472822,47.076965 h -0.0057 l 0.03963,-0.01698 -0.08492,-0.367983 -0.05661,-0.526498 h -0.198144 l -0.124548,0.06793 0.192483,0.639724 0.04529,0.430256 0.124548,0.469886 0.01698,0.198144 0.0736,0.215129 0.243435,1.188866 0.141532,0.854852 0.06227,0.141532 0.13587,-0.0057 0.124548,-0.01132 0.08492,-0.384966 0.09058,-0.645385 0.209467,-0.900142 v -0.02264 l -0.0057,-0.02831 -0.0057,-0.06227 0.07926,-0.158516 0.0736,-0.498192 0.06794,-0.503853 0.04529,-0.192483 0.05095,-0.203806 0.09624,-0.40195 0.05095,-0.169838 -0.271741,-0.04529 -0.03963,0.04529 -0.08492,0.571788 v 0.147193 l 0.01698,0.02264 -0.07926,0.09058 -0.07926,0.617078 -0.09058,0.588772 -0.06227,0.186822 -0.06794,0.40195 -0.107564,0.53216 -0.107564,0.520837 -0.01698,-0.0057 -0.01132,-0.0057 -0.02264,-0.13587 -0.0736,-0.288725 -0.113226,-0.651046 z m 2.083355,-0.271741 -0.02264,0.345337 -0.01698,0.192483 v 1.585156 l -0.05095,0.362321 0.09058,0.0057 0.107564,0.0057 0.124548,-0.03397 0.01132,-0.09624 -0.02264,-0.113226 -0.01132,-0.118886 V 48.30546 l -0.0057,-0.02831 -0.0057,-0.107564 -0.01132,-0.164177 -0.02264,-0.277402 0.01698,-0.305709 0.01698,-0.792578 0.02831,-0.164176 0.01698,-0.288725 -0.226451,-0.04529 -0.101903,0.02831 0.01698,0.158515 0.02264,1.353044 z m 1.602144,0.611417 0.02265,0.101903 0.09624,0.164177 0.215128,0.339676 0.05661,0.13587 0.226451,0.418934 0.07926,0.147193 0.209467,0.515176 0.05661,0.107564 0.260419,-0.124548 0.02264,-0.09058 -0.1755,-0.203806 -0.124548,-0.243435 -0.07926,-0.13587 -0.05095,-0.04529 -0.01698,-0.124548 -0.203805,-0.345338 -0.158516,-0.22645 -0.02264,-0.101903 -0.147193,-0.277403 0.232112,-0.266079 0.118887,-0.186822 0.203805,-0.203806 0.249096,-0.31137 -0.01132,-0.266079 -0.192483,-0.169839 -0.05095,-0.01132 -0.118886,-0.135871 -0.911465,-0.832206 -0.26608,0.09624 0.02264,0.435918 0.05095,1.211512 -0.01698,1.11527 0.0057,0.164177 0.0057,0.08492 v 0.07926 l -0.03963,0.254757 -0.02831,0.798239 0.215129,0.01698 0.107564,-0.03397 -0.0057,-0.367982 -0.05095,-0.101903 h -0.0057 l 0.03963,-0.02264 -0.02264,-0.549143 0.02264,-0.498192 -0.03963,-0.498192 0.02831,-0.277402 -0.01132,-0.481208 -0.02831,-0.09624 v -0.147193 l 0.03963,-0.651046 -0.0057,-0.09058 v -0.09058 l 0.147193,0.113226 0.07926,0.01132 0.05095,0.09624 0.492531,0.464224 0.05095,0.03963 0.198144,0.226451 -0.01698,0.02831 -0.09624,0.198145 -0.254757,0.305708 z m 2.626829,-2.321121 -0.203806,0.01698 -0.06227,0.01132 -0.03397,0.101903 -0.02831,0.05661 -0.35666,0.815223 -0.0057,0.01698 v 0.02831 l -0.0057,0.05095 -0.07926,0.07926 -0.345338,0.792578 -0.05095,0.05661 0.03397,0.198144 0.147193,0.328354 0.107565,0.254757 0.113225,0.249096 0.124548,0.288725 h 0.08492 l 0.02264,0.226451 0.237773,0.532159 0.01132,0.113225 0.237773,0.03397 0.04529,-0.05095 0.06227,-0.164177 0.322693,-0.792578 0.220789,-0.44724 0.277403,-0.583111 0.01698,-0.249096 -0.22645,-0.407612 -0.107565,-0.277402 h -0.03963 l -0.03963,-0.05095 -0.05661,-0.209467 -0.334015,-0.75861 z m -0.09058,3.83268 h 0.0057 l -0.04529,0.02831 -0.01132,0.0057 -0.147193,-0.379305 -0.203806,-0.44158 -0.169838,-0.35666 -0.141532,-0.367982 -0.0057,-0.01698 -0.06793,-0.169838 -0.02264,-0.05095 -0.01132,-0.02265 0.0057,-0.04529 v -0.02831 l 0.0057,-0.02265 0.209467,-0.498192 0.01698,-0.158515 h -0.0057 l 0.0736,-0.05095 0.35666,-0.673691 0.08492,-0.186822 0.0057,-0.03963 0.0057,-0.01132 0.03397,0.02831 0.175499,0.373644 0.03397,0.0057 h 0.02264 l -0.03397,0.0736 0.367983,0.84919 0.05095,0.101903 0.02265,0.05661 0.02831,0.03963 0.05661,0.164176 0.02265,0.06794 -0.26608,0.764271 -0.03963,0.147193 -0.09058,0.0736 z m 3.300518,0.0057 0.01132,-0.215128 -0.05095,-1.330398 -0.01698,-0.458563 0.06793,-1.505898 0.01132,-0.271741 -0.113225,-0.02265 -0.198145,0.0057 0.0057,0.334015 0.04529,0.0736 h 0.0057 l -0.05661,0.01698 0.01132,0.186822 0.0057,0.418934 0.01698,0.430257 -0.02265,0.03397 h -0.01698 l -0.430257,-0.588772 -0.05095,-0.03397 -0.152854,-0.26608 -0.498192,-0.66803 -0.26608,0.0736 v 0.192483 l 0.02831,0.266079 0.01132,0.367983 0.01698,0.373644 -0.01698,1.234157 0.03397,0.09058 0.02264,0.03963 -0.05095,0.215128 -0.01698,0.390628 -0.02265,0.458563 v 0.124548 l 0.0057,0.06793 -0.02831,0.328354 0.141532,0.02264 0.181161,-0.01132 0.01132,-0.226451 -0.01132,-0.09058 v -0.645385 l -0.02264,-0.215128 -0.02265,-0.22079 0.01132,-1.364366 -0.03963,-0.09058 -0.0057,-0.01698 0.05095,-0.35666 v -0.515175 l 0.0057,-0.03397 0.01698,-0.01132 0.09058,0.08492 0.141532,0.181161 0.05095,0.06227 0.13587,0.169838 0.237774,0.334015 0.18116,0.237773 0.08492,0.152855 0.0736,0.158515 0.135871,0.277403 0.0057,0.49253 0.02831,0.135871 0.02831,0.130209 -0.05095,0.01132 -0.01698,0.452902 0.01698,0.328354 v 0.249095 l -0.01698,0.328354 0.05661,0.01132 0.220789,-0.0057 0.02831,-0.05661 z m 1.375689,-3.402423 -0.243435,-0.430257 -0.05095,0.01132 -0.181161,0.03397 0.0057,0.175499 0.02265,0.09058 0.02264,0.08492 -0.02831,0.113226 0.02264,0.266079 0.02265,0.288725 -0.03397,2.411701 0.0057,0.169838 0.03963,0.01132 -0.04529,0.04529 -0.0057,0.02831 -0.0057,0.169839 -0.03397,0.215128 0.01698,0.08492 0.317031,-0.01132 0.01132,-0.09624 -0.05095,-0.88882 -0.05095,-0.724642 0.03963,-0.277403 v -0.764271 l -0.02831,-0.02831 0.02264,-0.06227 0.01698,-0.441579 -0.0057,-0.04529 v -0.147193 l -0.02265,-0.209467 0.0057,-0.0057 0.06793,0.09058 0.06227,0.07926 0.07926,0.147193 0.243434,0.418934 0.06794,0.101903 0.04529,0.164177 0.13587,0.02831 0.03963,0.01132 0.09624,-0.203806 h -0.0057 l 0.06227,-0.101903 0.02265,-0.03963 0.04529,-0.101902 0.141531,-0.232113 0.186822,-0.271741 0.05095,-0.09058 0.01132,-0.01132 0.0057,0.328353 0.01698,0.350999 -0.03963,1.319076 0.03963,0.288725 0.01698,0.03963 -0.02831,0.08492 v 0.718981 l -0.03963,0.407611 -0.01132,0.147193 0.03397,0.03397 0.300047,-0.01132 -0.01698,-0.226451 -0.01132,-0.209467 -0.06227,-2.683442 -0.02265,-0.08492 0.02831,-0.164177 0.03963,-0.775594 -0.06227,-0.05095 -0.158515,-0.0057 -0.13021,0.226451 -0.124547,0.220789 h 0.0057 l -0.02264,0.01132 -0.03963,0.107564 -0.186822,0.322693 -0.164177,0.249095 -0.03397,0.05661 -0.02264,0.05095 -0.02831,-0.05095 -0.02265,-0.06227 -0.05661,-0.124548 -0.01698,-0.01698 z m 3.521315,-0.118887 0.01698,-0.186822 -0.0057,-0.101903 -0.379306,0.0057 -0.317031,0.01698 -0.09624,-0.01698 h -0.31137 l -0.141532,0.01698 0.01698,0.294386 0.02831,0.01698 -0.02831,0.113226 0.0057,0.362321 -0.0057,0.469886 v 0.464224 l -0.01698,0.220789 0.03963,0.57745 0.02265,0.01698 -0.03963,0.08492 0.0057,0.294386 0.0057,0.277402 -0.02265,0.130209 -0.01132,0.254757 -0.01132,0.243435 -0.02265,0.215128 0.02265,0.107564 0.277402,0.0057 0.04529,-0.02831 h 0.277402 l 0.35666,0.03397 0.328354,0.0057 0.03963,-0.03963 0.02264,-0.243434 -0.124548,-0.01698 -0.152854,0.02831 -0.498192,0.03963 h -0.09058 l -0.18116,-0.03963 -0.0057,-0.06227 -0.01132,-0.605756 -0.02831,-0.02831 0.03397,-0.113225 -0.03963,-0.169839 0.03963,-0.775594 0.124548,0.0057 0.537821,0.02831 0.152854,0.01132 0.01698,-0.113226 0.02831,-0.124548 -0.04529,-0.04529 -0.158515,0.0057 -0.283064,0.03397 -0.396289,-0.0057 -0.02264,-0.390628 -0.0057,-0.328354 0.03963,-0.06793 0.01132,-0.560466 0.01132,-0.158515 -0.0057,-0.101903 -0.01698,-0.05095 -0.01132,-0.05095 0.124548,-0.02265 0.06793,0.0057 h 0.06794 l 0.350998,0.02831 0.09058,-0.01132 0.169838,0.04529 z m 2.428687,3.52131 0.01132,-0.215128 -0.05095,-1.330398 -0.01698,-0.458563 0.06794,-1.505898 0.01132,-0.271741 -0.113225,-0.02265 -0.198145,0.0057 0.0057,0.334015 0.04529,0.0736 h 0.0057 l -0.05661,0.01698 0.01132,0.186822 0.0057,0.418934 0.01698,0.430257 -0.02264,0.03397 h -0.01698 l -0.430256,-0.588772 -0.05095,-0.03397 -0.152854,-0.26608 -0.498192,-0.66803 -0.26608,0.0736 v 0.192483 l 0.02831,0.266079 0.01132,0.367983 0.01698,0.373644 -0.01698,1.234157 0.03397,0.09058 0.02265,0.03963 -0.05095,0.215128 -0.01698,0.390628 -0.02264,0.458563 v 0.124548 l 0.0057,0.06793 -0.02831,0.328354 0.141531,0.02264 0.181161,-0.01132 0.01132,-0.226451 -0.01132,-0.09058 v -0.645385 l -0.02264,-0.215128 -0.02264,-0.22079 0.01132,-1.364366 -0.03963,-0.09058 -0.0057,-0.01698 0.05095,-0.35666 v -0.515175 l 0.0057,-0.03397 0.01698,-0.01132 0.09058,0.08492 0.141532,0.181161 0.05095,0.06227 0.135871,0.169838 0.237773,0.334015 0.181161,0.237773 0.08492,0.152855 0.0736,0.158515 0.135871,0.277403 0.0057,0.49253 0.02831,0.135871 0.02831,0.130209 -0.05095,0.01132 -0.01698,0.452902 0.01698,0.328354 v 0.249095 l -0.01698,0.328354 0.05661,0.01132 0.22079,-0.0057 0.02831,-0.05661 z m 1.896526,-3.804373 -0.288725,0.01132 -0.266079,0.0057 h -0.06794 l -0.06793,-0.01132 -0.124548,-0.0057 -0.464224,-0.02264 -0.03963,0.300047 0.0736,0.02831 0.266079,-0.05095 0.04529,-0.0057 0.0736,-0.02264 h 0.305709 v 0.118886 l 0.02264,0.147193 0.02264,0.141532 -0.02831,0.350999 0.03963,0.294386 -0.03397,1.25114 -0.02831,0.809562 0.01698,0.04529 0.01698,0.03963 -0.06794,0.424595 v 0.305709 l 0.164177,0.02265 0.13587,-0.01698 0.07926,-0.05095 -0.0736,-0.328354 -0.01132,-1.126593 -0.03397,-0.101902 -0.02831,-0.107565 h -0.0057 l 0.03963,-0.03397 0.01698,-0.26608 -0.0057,-0.464224 v -0.169838 l -0.0057,-0.06793 -0.0057,-0.249096 0.01698,-0.554805 0.01132,-0.203805 0.01698,-0.215129 h 0.35666 l 0.243434,0.05095 0.05095,0.02265 0.101903,0.0057 0.01132,-0.169838 -0.02264,-0.135871 z"
       id="text3"
       style="font-size:5.66127px;font-family:Norse;-inkscape-font-specification:Norse;text-align:center;text-anchor:middle;fill:#292929;stroke-width:0.303281"
       transform="scale(1.1462615,0.87240128)"
       aria-label="Guild's Integrated development environment" />
  </g>
</svg>
