<?xml version="1.0" encoding="UTF-8" standalone="no"?>
<!-- Created with Inkscape (http://www.inkscape.org/) -->

<svg
   width="24.368942mm"
   height="17.287725mm"
   viewBox="0 0 24.368942 17.287725"
   version="1.1"
   id="svg1"
   inkscape:version="1.3.2 (091e20ef0f, 2023-11-25, custom)"
   sodipodi:docname="gideLogoSmall.svg"
   xmlns:inkscape="http://www.inkscape.org/namespaces/inkscape"
   xmlns:sodipodi="http://sodipodi.sourceforge.net/DTD/sodipodi-0.dtd"
   xmlns="http://www.w3.org/2000/svg"
   xmlns:svg="http://www.w3.org/2000/svg">
  <sodipodi:namedview
     id="namedview1"
     pagecolor="#505050"
     bordercolor="#eeeeee"
     borderopacity="1"
     inkscape:showpageshadow="0"
     inkscape:pageopacity="0"
     inkscape:pagecheckerboard="0"
     inkscape:deskcolor="#505050"
     inkscape:document-units="mm"
     inkscape:zoom="0.75544332"
     inkscape:cx="395.79409"
     inkscape:cy="558.61239"
     inkscape:window-width="1920"
     inkscape:window-height="1052"
     inkscape:window-x="0"
     inkscape:window-y="0"
     inkscape:window-maximized="1"
     inkscape:current-layer="layer1" />
  <defs
     id="defs1" />
  <g
     inkscape:label="Layer 1"
     inkscape:groupmode="layer"
     id="layer1"
     transform="translate(-0.3278006,-0.62626817)">
    <path
       d="m 6.5956078,8.1655927 0.044768,0.9791547 0.044767,0.2323397 0.044768,0.4812806 V 12.28136 l -0.059691,0.414898 0.044768,0.995749 -0.014924,0.09958 -0.014924,0.04979 L 6.0136165,12.795831 5.416704,11.683909 4.7153315,10.638374 4.4317978,10.389436 4.476567,10.240071 3.6707342,8.796234 3.9990365,8.2651654 4.3273386,7.4519688 5.2077845,6.1906861 6.6403749,4.0498215 7.0880594,3.5021593 7.2969789,3.153646 7.0731369,3.0042816 6.625452,2.6059837 6.1628447,3.3693921 v 0.099573 L 6.1479211,3.5851383 5.3122429,4.8132301 5.1630148,5.3277014 4.6854847,5.9583428 4.2825688,6.5889841 3.7304249,7.468566 3.2528948,8.2817626 l -0.089537,0.1493608 -0.059691,0.016615 -0.029847,0.8961756 0.7759867,1.211498 0.5073759,0.647238 0.3283019,0.630641 0.2835335,0.09958 h -0.014924 l -0.074614,0.215746 0.6715267,1.228091 0.6267583,0.945964 0.1790738,0.348513 0.074614,0.149361 0.1044592,0.298725 0.775987,-0.06638 -0.014924,-0.497877 -0.044768,-0.04979 -0.044768,-0.08298 0.089537,-0.199153 V 9.692427 L 7.2223613,9.5928512 7.3865123,8.2651831 7.3118981,8.1158222 Z M 9.7890876,7.717503 9.7293947,8.7298486 9.6846265,9.2941081 v 4.6468389 l -0.1343053,1.062134 0.2387664,0.01661 0.2835334,0.01658 0.3283,-0.09957 0.02984,-0.282129 -0.05969,-0.33192 -0.02984,-0.348513 V 9.0451711 l -0.01492,-0.082979 -0.01492,-0.3153224 -0.02984,-0.4812769 -0.05969,-0.8131966 0.04477,-0.8961756 0.04477,-2.3234199 0.07461,-0.4812805 0.04477,-0.8463874 -0.5969141,-0.1327672 -0.2686098,0.082979 0.044768,0.4646832 0.059691,3.9664067 z m 4.8797744,5.791952 0.537219,-1.145116 0.880448,-1.493626 -0.04476,-0.08298 -0.02984,-0.09957 h -0.01492 l 0.238764,-0.132767 0.686451,-1.0621369 0.20892,-0.398298 V 8.2319746 L 16.93714,8.0328255 15.56424,5.9583428 15.012097,5.3111042 14.967332,4.979188 14.549493,4.3153558 14.355494,4.0664152 14.31073,4.0166313 14.176424,3.7179061 13.698895,3.0540704 l -0.31338,-0.4646833 -0.223842,0.11617 -0.447687,0.1493643 0.01493,0.365107 0.02984,0.9127728 0.104457,0.2323398 -0.04476,0.4480897 0.05969,4.6468361 0.05969,0.6804292 -0.05969,4.032791 -0.05969,0.862985 0.313377,0.01658 0.313381,0.01661 0.193995,0.08298 z m -1.163981,-6.5221694 -0.01492,-1.4438381 -0.05969,-1.1783071 -0.01492,-0.3153189 -0.01492,-0.2323433 0.984905,1.5102232 0.865524,1.3442618 0.507376,0.6472385 0.402915,0.7302175 0.119381,0.2157462 0.164152,0.2655343 0.119386,0.282128 -0.268614,0.6306445 -0.59691,0.9625578 -0.820757,1.543414 -0.223843,0.298725 -0.358148,0.647238 -0.238762,0.331917 -0.492453,0.813196 -0.02984,0.01661 -0.02984,-0.199148 -0.05969,-0.829795 -0.01492,-0.531066 -0.01492,-0.348513 0.119381,-3.4021496 -0.08954,-0.6638322 -0.07461,-0.6970266 z m 8.341861,-3.3523627 0.04477,-0.5476623 -0.01492,-0.2987252 -0.999828,0.01658 -0.835677,0.049788 -0.25369,-0.049788 h -0.820758 l -0.373072,0.049788 0.04476,0.8629846 0.07461,0.049784 -0.07461,0.3319197 0.01492,1.0621337 -0.01492,1.3774561 v 1.3608589 l -0.04476,0.6472386 0.104458,1.692775 0.0597,0.04979 -0.104463,0.248938 0.01492,0.862983 0.01492,0.813198 -0.05969,0.381703 -0.02984,0.746812 -0.02985,0.713623 -0.0597,0.630642 0.0597,0.315323 0.731216,0.01661 0.119385,-0.08298 h 0.731215 l 0.940138,0.09957 0.865524,0.01658 0.104461,-0.11617 0.05969,-0.713621 -0.328304,-0.04979 -0.402915,0.08298 -1.31321,0.11617 H 19.83216 l -0.477529,-0.116172 -0.01492,-0.182556 -0.02984,-1.775753 -0.07461,-0.08298 0.08954,-0.331916 -0.104462,-0.497874 0.104462,-2.2736318 0.3283,0.016615 1.41767,0.082979 0.402916,0.033194 0.04476,-0.3319162 0.07461,-0.3651104 -0.119381,-0.1327672 -0.417838,0.016615 -0.746143,0.099576 -1.044596,-0.01658 -0.05969,-1.1451126 -0.01492,-0.962561 0.104458,-0.199149 0.02984,-1.6429905 0.02984,-0.4646832 -0.01492,-0.2987252 -0.04477,-0.1493608 -0.02985,-0.1493644 0.328301,-0.066382 0.179076,0.01658 h 0.179072 l 0.925214,0.082979 0.238767,-0.033194 0.447682,0.1327672 z"
       id="text2"
       style="font-size:43.1671px;font-family:Norse;-inkscape-font-specification:Norse;fill:#c8c8c8;fill-opacity:1;stroke-width:0.163929"
       aria-label="GIDE" />
  </g>
</svg>
